<svg viewBox="0 0 32 32" fill="none" xmlns="http://www.w3.org/2000/svg">
  <rect width="32" height="32" rx="4" fill="#2563eb"/>
  
  <!-- Car body -->
  <path d="M6 18h20c1.1 0 2 .9 2 2v4c0 1.1-.9 2-2 2h-1c0 1.1-.9 2-2 2s-2-.9-2-2H11c0 1.1-.9 2-2 2s-2-.9-2-2H6c-1.1 0-2-.9-2-2v-4c0-1.1.9-2 2-2z" fill="#fff"/>
  
  <!-- Car roof -->
  <path d="M8 18l2-6h12l2 6H8z" fill="#e5e7eb"/>
  
  <!-- Windows -->
  <rect x="10" y="13" width="4" height="4" rx="1" fill="#2563eb"/>
  <rect x="18" y="13" width="4" height="4" rx="1" fill="#2563eb"/>
  
  <!-- Wheels -->
  <circle cx="10" cy="22" r="2" fill="#374151"/>
  <circle cx="22" cy="22" r="2" fill="#374151"/>
  
  <!-- Headlight -->
  <circle cx="26" cy="20" r="1" fill="#fbbf24"/>
</svg>
